<svg xmlns="http://www.w3.org/2000/svg" width="15.039" height="10.412"><path data-name="Контур 3" d="M14.916 1.276l-3.89 3.962a.07.07 0 000 .1l2.722 2.9a.469.469 0 010 .665.471.471 0 01-.665 0l-2.711-2.889a.074.074 0 00-.1 0l-.662.672a2.911 2.911 0 01-2.075.875 2.969 2.969 0 01-2.118-.9l-.636-.647a.074.074 0 00-.1 0L1.97 8.903a.471.471 0 01-.665 0 .469.469 0 010-.665l2.722-2.9a.077.077 0 000-.1L.133 1.276a.071.071 0 00-.123.051v7.928a1.16 1.16 0 001.157 1.157h12.715a1.16 1.16 0 001.157-1.157V1.327a.072.072 0 00-.123-.051z"/><path data-name="Контур 4" d="M7.519 6.619a1.965 1.965 0 001.414-.593L14.605.253A1.136 1.136 0 0013.889 0H1.153a1.129 1.129 0 00-.716.253l5.672 5.773a1.966 1.966 0 001.41.593z"/></svg>