<svg xmlns="http://www.w3.org/2000/svg" width="15.26" height="15.259"><path d="M14.819 11.948a12.818 12.818 0 00-2.676-1.791c-.8-.385-1.1-.377-1.664.032-.473.342-.779.659-1.323.54a11.181 11.181 0 01-4.624-4.624c-.115-.548.2-.85.54-1.323.409-.568.421-.862.032-1.664A12.564 12.564 0 003.312.441c-.584-.584-.715-.457-1.037-.342a5.9 5.9 0 00-.949.5 2.864 2.864 0 00-1.14 1.2c-.226.489-.489 1.4.846 3.774a21.058 21.058 0 003.7 4.938 21.14 21.14 0 004.938 3.7c2.376 1.335 3.285 1.073 3.774.846a2.815 2.815 0 001.2-1.14 5.9 5.9 0 00.5-.949c.132-.303.263-.436-.325-1.02z"/></svg>