<svg xmlns="http://www.w3.org/2000/svg" width="15" height="15"><path data-name="_ionicons_svg_ios-person" d="M14.991 14.621c-.281-1.242-1.887-1.848-2.442-2.043a18.2 18.2 0 00-2.035-.391 2.068 2.068 0 01-.941-.434 8.227 8.227 0 01-.062-1.926 5.793 5.793 0 00.445-.848 10.933 10.933 0 00.328-1.48s.32 0 .434-.562a5.535 5.535 0 00.289-1.309c-.023-.449-.27-.437-.27-.437a6.848 6.848 0 00.266-2 3.518 3.518 0 00-7 0 7.143 7.143 0 00.262 2s-.246-.012-.27.438a5.534 5.534 0 00.289 1.309c.109.563.434.563.434.563a10.934 10.934 0 00.328 1.48 5.8 5.8 0 00.445.848 8.227 8.227 0 01-.063 1.926 2.068 2.068 0 01-.941.434 18.2 18.2 0 00-2.035.391c-.555.2-2.16.8-2.442 2.043a.312.312 0 00.309.379h14.372a.312.312 0 00.3-.381z"/></svg>