<svg xmlns="http://www.w3.org/2000/svg" width="15.195" height="10.52"><g fill="#fff"><path data-name="Контур 1" d="M15.071 1.289l-3.93 4a.071.071 0 000 .1l2.75 2.929a.474.474 0 010 .672.476.476 0 01-.672 0l-2.74-2.908a.075.075 0 00-.106 0l-.668.679a2.941 2.941 0 01-2.1.884 3 3 0 01-2.14-.91l-.643-.654a.075.075 0 00-.106 0L1.977 8.999a.476.476 0 01-.672 0 .474.474 0 010-.672l2.75-2.929a.078.078 0 000-.1l-3.934-4a.072.072 0 00-.124.051v8.01a1.172 1.172 0 001.169 1.169h12.86a1.172 1.172 0 001.169-1.169v-8.01a.073.073 0 00-.124-.06z"/><path data-name="Контур 2" d="M7.597 6.688a1.986 1.986 0 001.428-.6L14.756.255a1.148 1.148 0 00-.723-.256H1.165a1.14 1.14 0 00-.723.256l5.731 5.833a1.986 1.986 0 001.424.6z"/></g></svg>