<?xml version="1.0" encoding="UTF-8"?><!DOCTYPE svg PUBLIC "-//W3C//DTD SVG 1.1//EN" "http://www.w3.org/Graphics/SVG/1.1/DTD/svg11.dtd"><svg xmlns="http://www.w3.org/2000/svg" xmlns:xlink="http://www.w3.org/1999/xlink"><symbol id="icon-close"><g><path d="M20 2.021L17.979 0 10 7.979 2.021 0 0 2.021 7.979 10 0 17.979 2.021 20 10 12.021 17.979 20 20 17.979 12.021 10z" fill="#fff"/></g></symbol><symbol id="icon-mail-black"><path data-name="&#x41A;&#x43E;&#x43D;&#x442;&#x443;&#x440; 3" d="M14.916 1.276l-3.89 3.962a.07.07 0 000 .1l2.722 2.9a.469.469 0 010 .665.471.471 0 01-.665 0l-2.711-2.889a.074.074 0 00-.1 0l-.662.672a2.911 2.911 0 01-2.075.875 2.969 2.969 0 01-2.118-.9l-.636-.647a.074.074 0 00-.1 0L1.97 8.903a.471.471 0 01-.665 0 .469.469 0 010-.665l2.722-2.9a.077.077 0 000-.1L.133 1.276a.071.071 0 00-.123.051v7.928a1.16 1.16 0 001.157 1.157h12.715a1.16 1.16 0 001.157-1.157V1.327a.072.072 0 00-.123-.051z"/><path data-name="&#x41A;&#x43E;&#x43D;&#x442;&#x443;&#x440; 4" d="M7.519 6.619a1.965 1.965 0 001.414-.593L14.605.253A1.136 1.136 0 0013.889 0H1.153a1.129 1.129 0 00-.716.253l5.672 5.773a1.966 1.966 0 001.41.593z"/></symbol><symbol id="icon-phone-black"><path d="M14.819 11.948a12.818 12.818 0 00-2.676-1.791c-.8-.385-1.1-.377-1.664.032-.473.342-.779.659-1.323.54a11.181 11.181 0 01-4.624-4.624c-.115-.548.2-.85.54-1.323.409-.568.421-.862.032-1.664A12.564 12.564 0 003.312.441c-.584-.584-.715-.457-1.037-.342a5.9 5.9 0 00-.949.5 2.864 2.864 0 00-1.14 1.2c-.226.489-.489 1.4.846 3.774a21.058 21.058 0 003.7 4.938 21.14 21.14 0 004.938 3.7c2.376 1.335 3.285 1.073 3.774.846a2.815 2.815 0 001.2-1.14 5.9 5.9 0 00.5-.949c.132-.303.263-.436-.325-1.02z"/></symbol><symbol id="icon-tick"><path d="M31.608 46.217a2.448 2.448 0 01-1.879-.854l-12.9-14.01a2.54 2.54 0 113.759-3.417l11.105 12.045L62.447 9.313a2.537 2.537 0 013.588 3.585l-32.633 32.55a2.327 2.327 0 01-1.794.769z" fill="#4dcfe0"/><path d="M34 68a34 34 0 110-68 2.517 2.517 0 012.563 2.563A2.517 2.517 0 0134 5.125 28.874 28.874 0 1062.875 34 2.563 2.563 0 1168 34a34.089 34.089 0 01-34 34z" fill="#1185e0"/></symbol><symbol id="icon-user-black"><path data-name="_ionicons_svg_ios-person" d="M14.991 14.621c-.281-1.242-1.887-1.848-2.442-2.043a18.2 18.2 0 00-2.035-.391 2.068 2.068 0 01-.941-.434 8.227 8.227 0 01-.062-1.926 5.793 5.793 0 00.445-.848 10.933 10.933 0 00.328-1.48s.32 0 .434-.562a5.535 5.535 0 00.289-1.309c-.023-.449-.27-.437-.27-.437a6.848 6.848 0 00.266-2 3.518 3.518 0 00-7 0 7.143 7.143 0 00.262 2s-.246-.012-.27.438a5.534 5.534 0 00.289 1.309c.109.563.434.563.434.563a10.934 10.934 0 00.328 1.48 5.8 5.8 0 00.445.848 8.227 8.227 0 01-.063 1.926 2.068 2.068 0 01-.941.434 18.2 18.2 0 00-2.035.391c-.555.2-2.16.8-2.442 2.043a.312.312 0 00.309.379h14.372a.312.312 0 00.3-.381z"/></symbol></svg>